STARTFONT 2.1
FONT -Adobe-Times-Medium-R-Normal--10-100-75-75-P-54-windows-1251
SIZE 10 75 75
FONTBOUNDINGBOX 11 13 -1 -3
COMMENT $XConsortium: timR10.bdf,v 1.14 95/01/26 18:07:13 gildea Exp $
COMMENT 
COMMENT +
COMMENT  Copyright 1984-1989, 1994 Adobe Systems Incorporated.
COMMENT  Copyright 1988, 1994 Digital Equipment Corporation.
COMMENT
COMMENT  Adobe is a trademark of Adobe Systems Incorporated which may be
COMMENT  registered in certain jurisdictions.
COMMENT  Permission to use these trademarks is hereby granted only in
COMMENT  association with the images described in this file.
COMMENT
COMMENT  Permission to use, copy, modify, distribute and sell this software
COMMENT  and its documentation for any purpose and without fee is hereby
COMMENT  granted, provided that the above copyright notices appear in all
COMMENT  copies and that both those copyright notices and this permission
COMMENT  notice appear in supporting documentation, and that the names of
COMMENT  Adobe Systems and Digital Equipment Corporation not be used in
COMMENT  advertising or publicity pertaining to distribution of the software
COMMENT  without specific, written prior permission.  Adobe Systems and
COMMENT  Digital Equipment Corporation make no representations about the
COMMENT  suitability of this software for any purpose.  It is provided "as
COMMENT  is" without express or implied warranty.
COMMENT -
STARTPROPERTIES 32
FOUNDRY "Adobe"
FAMILY_NAME "Times"
WEIGHT_NAME "Medium"
SLANT "R"
SETWIDTH_NAME "Normal"
ADD_STYLE_NAME ""
PIXEL_SIZE 10
POINT_SIZE 100
RESOLUTION_X 75
RESOLUTION_Y 75
SPACING "P"
AVERAGE_WIDTH 54
CHARSET_REGISTRY "windows"
CHARSET_ENCODING "1251"
CAP_HEIGHT 7
X_HEIGHT 5
FONT_ASCENT 9
FONT_DESCENT 3
FACE_NAME "Times Roman"
COPYRIGHT "Copyright (c) 1984, 1987 Adobe Systems Incorporated. All Rights Reserved. Copyright (c) 1988, 1991 Digital Equipment Corporation. All Rights Reserved."
NOTICE "Times is a trademark of Linotype-Hell AG and/or its subsidiaries."

STARTCHAR space
ENCODING 32
SWIDTH 192 0
DWIDTH 2 0
BBX 0 0 0 0
BITMAP
ENDCHAR
STARTCHAR exclam
ENCODING 33
SWIDTH 288 0
DWIDTH 3 0
BBX 1 7 1 0
BITMAP
80
80
80
80
80
00
80
ENDCHAR
STARTCHAR quotedbl
ENCODING 34
SWIDTH 384 0
DWIDTH 4 0
BBX 3 2 0 5
BITMAP
A0
A0
ENDCHAR
STARTCHAR numbersign
ENCODING 35
SWIDTH 480 0
DWIDTH 5 0
BBX 5 7 0 0
BITMAP
50
50
F8
50
F8
50
50
ENDCHAR
STARTCHAR dollar
ENCODING 36
SWIDTH 480 0
DWIDTH 5 0
BBX 4 9 0 -1
BITMAP
20
70
90
80
60
10
90
E0
20
ENDCHAR
STARTCHAR percent
ENCODING 37
SWIDTH 768 0
DWIDTH 8 0
BBX 7 7 0 0
BITMAP
7E
A4
A8
56
2A
2A
44
ENDCHAR
STARTCHAR ampersand
ENCODING 38
SWIDTH 768 0
DWIDTH 8 0
BBX 8 7 0 0
BITMAP
30
50
6E
74
98
8D
76
ENDCHAR
STARTCHAR quotesingle
ENCODING 39
SWIDTH 192 0
DWIDTH 2 0
BBX 1 2 0 5
BITMAP
80
80
ENDCHAR
STARTCHAR parenleft
ENCODING 40
SWIDTH 384 0
DWIDTH 4 0
BBX 3 9 0 -2
BITMAP
20
40
40
80
80
80
40
40
20
ENDCHAR
STARTCHAR parenright
ENCODING 41
SWIDTH 384 0
DWIDTH 4 0
BBX 3 9 0 -2
BITMAP
80
40
40
20
20
20
40
40
80
ENDCHAR
STARTCHAR asterisk
ENCODING 42
SWIDTH 480 0
DWIDTH 5 0
BBX 3 3 0 4
BITMAP
A0
40
A0
ENDCHAR
STARTCHAR plus
ENCODING 43
SWIDTH 576 0
DWIDTH 6 0
BBX 5 5 0 0
BITMAP
20
20
F8
20
20
ENDCHAR
STARTCHAR comma
ENCODING 44
SWIDTH 288 0
DWIDTH 3 0
BBX 1 3 1 -2
BITMAP
80
80
80
ENDCHAR
STARTCHAR minus
ENCODING 45
SWIDTH 672 0
DWIDTH 7 0
BBX 4 1 1 2
BITMAP
F0
ENDCHAR
STARTCHAR period
ENCODING 46
SWIDTH 288 0
DWIDTH 3 0
BBX 1 1 1 0
BITMAP
80
ENDCHAR
STARTCHAR slash
ENCODING 47
SWIDTH 288 0
DWIDTH 3 0
BBX 3 7 0 0
BITMAP
20
20
40
40
40
80
80
ENDCHAR
STARTCHAR zero
ENCODING 48
SWIDTH 480 0
DWIDTH 5 0
BBX 4 7 0 0
BITMAP
60
90
90
90
90
90
60
ENDCHAR
STARTCHAR one
ENCODING 49
SWIDTH 480 0
DWIDTH 5 0
BBX 3 7 1 0
BITMAP
40
C0
40
40
40
40
E0
ENDCHAR
STARTCHAR two
ENCODING 50
SWIDTH 480 0
DWIDTH 5 0
BBX 4 7 0 0
BITMAP
60
90
10
20
20
40
F0
ENDCHAR
STARTCHAR three
ENCODING 51
SWIDTH 480 0
DWIDTH 5 0
BBX 4 7 0 0
BITMAP
60
90
10
60
10
10
E0
ENDCHAR
STARTCHAR four
ENCODING 52
SWIDTH 480 0
DWIDTH 5 0
BBX 5 7 0 0
BITMAP
10
30
50
90
F8
10
10
ENDCHAR
STARTCHAR five
ENCODING 53
SWIDTH 480 0
DWIDTH 5 0
BBX 4 7 0 0
BITMAP
70
40
E0
10
10
90
E0
ENDCHAR
STARTCHAR six
ENCODING 54
SWIDTH 480 0
DWIDTH 5 0
BBX 4 7 0 0
BITMAP
30
40
E0
90
90
90
60
ENDCHAR
STARTCHAR seven
ENCODING 55
SWIDTH 480 0
DWIDTH 5 0
BBX 4 7 0 0
BITMAP
F0
90
20
20
40
40
40
ENDCHAR
STARTCHAR eight
ENCODING 56
SWIDTH 480 0
DWIDTH 5 0
BBX 4 7 0 0
BITMAP
60
90
90
60
90
90
60
ENDCHAR
STARTCHAR nine
ENCODING 57
SWIDTH 480 0
DWIDTH 5 0
BBX 4 7 0 0
BITMAP
60
90
90
90
70
20
C0
ENDCHAR
STARTCHAR colon
ENCODING 58
SWIDTH 288 0
DWIDTH 3 0
BBX 1 5 1 0
BITMAP
80
00
00
00
80
ENDCHAR
STARTCHAR semicolon
ENCODING 59
SWIDTH 288 0
DWIDTH 3 0
BBX 1 7 1 -2
BITMAP
80
00
00
00
80
80
80
ENDCHAR
STARTCHAR less
ENCODING 60
SWIDTH 480 0
DWIDTH 5 0
BBX 3 5 1 0
BITMAP
20
40
80
40
20
ENDCHAR
STARTCHAR equal
ENCODING 61
SWIDTH 576 0
DWIDTH 6 0
BBX 5 3 0 1
BITMAP
F8
00
F8
ENDCHAR
STARTCHAR greater
ENCODING 62
SWIDTH 480 0
DWIDTH 5 0
BBX 3 5 0 0
BITMAP
80
40
20
40
80
ENDCHAR
STARTCHAR question
ENCODING 63
SWIDTH 384 0
DWIDTH 4 0
BBX 3 7 0 0
BITMAP
E0
A0
20
40
40
00
40
ENDCHAR
STARTCHAR at
ENCODING 64
SWIDTH 864 0
DWIDTH 9 0
BBX 8 9 0 -2
BITMAP
3C
42
9D
A5
A5
AD
92
40
3E
ENDCHAR
STARTCHAR A
ENCODING 65
SWIDTH 768 0
DWIDTH 8 0
BBX 7 7 0 0
BITMAP
10
38
28
28
7C
44
EE
ENDCHAR
STARTCHAR B
ENCODING 66
SWIDTH 576 0
DWIDTH 6 0
BBX 5 7 0 0
BITMAP
F0
48
48
70
48
48
F0
ENDCHAR
STARTCHAR C
ENCODING 67
SWIDTH 672 0
DWIDTH 7 0
BBX 6 7 0 0
BITMAP
7C
C4
80
80
80
C4
78
ENDCHAR
STARTCHAR D
ENCODING 68
SWIDTH 672 0
DWIDTH 7 0
BBX 6 7 0 0
BITMAP
F8
4C
44
44
44
4C
F8
ENDCHAR
STARTCHAR E
ENCODING 69
SWIDTH 576 0
DWIDTH 6 0
BBX 5 7 0 0
BITMAP
F8
48
40
70
40
48
F8
ENDCHAR
STARTCHAR F
ENCODING 70
SWIDTH 576 0
DWIDTH 6 0
BBX 5 7 0 0
BITMAP
F8
48
40
70
40
40
E0
ENDCHAR
STARTCHAR G
ENCODING 71
SWIDTH 672 0
DWIDTH 7 0
BBX 6 7 0 0
BITMAP
7C
C4
80
9C
84
C4
78
ENDCHAR
STARTCHAR H
ENCODING 72
SWIDTH 768 0
DWIDTH 8 0
BBX 7 7 0 0
BITMAP
EE
44
44
7C
44
44
EE
ENDCHAR
STARTCHAR I
ENCODING 73
SWIDTH 384 0
DWIDTH 4 0
BBX 3 7 0 0
BITMAP
E0
40
40
40
40
40
E0
ENDCHAR
STARTCHAR J
ENCODING 74
SWIDTH 384 0
DWIDTH 4 0
BBX 4 7 0 0
BITMAP
70
20
20
20
20
A0
C0
ENDCHAR
STARTCHAR K
ENCODING 75
SWIDTH 672 0
DWIDTH 7 0
BBX 6 7 0 0
BITMAP
EC
48
50
60
50
48
EC
ENDCHAR
STARTCHAR L
ENCODING 76
SWIDTH 576 0
DWIDTH 6 0
BBX 5 7 0 0
BITMAP
E0
40
40
40
40
48
F8
ENDCHAR
STARTCHAR M
ENCODING 77
SWIDTH 960 0
DWIDTH 10 0
BBX 9 7 0 0
BITMAP
E380
6300
6300
5500
5500
4900
EB80
ENDCHAR
STARTCHAR N
ENCODING 78
SWIDTH 768 0
DWIDTH 8 0
BBX 7 7 0 0
BITMAP
EE
64
54
54
4C
4C
E4
ENDCHAR
STARTCHAR O
ENCODING 79
SWIDTH 672 0
DWIDTH 7 0
BBX 6 7 0 0
BITMAP
78
CC
84
84
84
CC
78
ENDCHAR
STARTCHAR P
ENCODING 80
SWIDTH 576 0
DWIDTH 6 0
BBX 5 7 0 0
BITMAP
F0
48
48
70
40
40
E0
ENDCHAR
STARTCHAR Q
ENCODING 81
SWIDTH 672 0
DWIDTH 7 0
BBX 6 9 0 -2
BITMAP
78
CC
84
84
84
CC
70
18
0C
ENDCHAR
STARTCHAR R
ENCODING 82
SWIDTH 672 0
DWIDTH 7 0
BBX 6 7 0 0
BITMAP
F0
48
48
70
50
48
EC
ENDCHAR
STARTCHAR S
ENCODING 83
SWIDTH 480 0
DWIDTH 5 0
BBX 4 7 0 0
BITMAP
70
90
C0
60
10
90
E0
ENDCHAR
STARTCHAR T
ENCODING 84
SWIDTH 576 0
DWIDTH 6 0
BBX 5 7 0 0
BITMAP
F8
A8
20
20
20
20
70
ENDCHAR
STARTCHAR U
ENCODING 85
SWIDTH 768 0
DWIDTH 8 0
BBX 7 7 0 0
BITMAP
EE
44
44
44
44
6C
38
ENDCHAR
STARTCHAR V
ENCODING 86
SWIDTH 768 0
DWIDTH 8 0
BBX 7 7 0 0
BITMAP
EE
44
6C
28
28
10
10
ENDCHAR
STARTCHAR W
ENCODING 87
SWIDTH 960 0
DWIDTH 10 0
BBX 10 7 0 0
BITMAP
DDC0
8880
C980
5500
5500
2200
2200
ENDCHAR
STARTCHAR X
ENCODING 88
SWIDTH 768 0
DWIDTH 8 0
BBX 7 7 0 0
BITMAP
EE
44
28
10
28
44
EE
ENDCHAR
STARTCHAR Y
ENCODING 89
SWIDTH 768 0
DWIDTH 8 0
BBX 7 7 0 0
BITMAP
EE
44
28
28
10
10
38
ENDCHAR
STARTCHAR Z
ENCODING 90
SWIDTH 576 0
DWIDTH 6 0
BBX 5 7 0 0
BITMAP
F8
88
10
20
40
88
F8
ENDCHAR
STARTCHAR bracketleft
ENCODING 91
SWIDTH 288 0
DWIDTH 3 0
BBX 2 9 0 -2
BITMAP
C0
80
80
80
80
80
80
80
C0
ENDCHAR
STARTCHAR backslash
ENCODING 92
SWIDTH 288 0
DWIDTH 3 0
BBX 3 7 0 0
BITMAP
80
80
40
40
40
20
20
ENDCHAR
STARTCHAR bracketright
ENCODING 93
SWIDTH 288 0
DWIDTH 3 0
BBX 2 9 0 -2
BITMAP
C0
40
40
40
40
40
40
40
C0
ENDCHAR
STARTCHAR asciicircum
ENCODING 94
SWIDTH 480 0
DWIDTH 5 0
BBX 3 3 1 4
BITMAP
40
A0
A0
ENDCHAR
STARTCHAR underscore
ENCODING 95
SWIDTH 480 0
DWIDTH 5 0
BBX 5 1 0 -3
BITMAP
F8
ENDCHAR
STARTCHAR grave
ENCODING 96
SWIDTH 288 0
DWIDTH 3 0
BBX 2 2 0 6
BITMAP
80
40
ENDCHAR
STARTCHAR a
ENCODING 97
SWIDTH 384 0
DWIDTH 4 0
BBX 3 5 0 0
BITMAP
C0
20
60
A0
E0
ENDCHAR
STARTCHAR b
ENCODING 98
SWIDTH 480 0
DWIDTH 5 0
BBX 4 7 0 0
BITMAP
80
80
E0
90
90
90
E0
ENDCHAR
STARTCHAR c
ENCODING 99
SWIDTH 384 0
DWIDTH 4 0
BBX 3 5 0 0
BITMAP
60
80
80
80
60
ENDCHAR
STARTCHAR d
ENCODING 100
SWIDTH 480 0
DWIDTH 5 0
BBX 5 7 0 0
BITMAP
30
10
70
90
90
90
68
ENDCHAR
STARTCHAR e
ENCODING 101
SWIDTH 384 0
DWIDTH 4 0
BBX 3 5 0 0
BITMAP
60
A0
C0
80
60
ENDCHAR
STARTCHAR f
ENCODING 102
SWIDTH 384 0
DWIDTH 4 0
BBX 4 7 0 0
BITMAP
30
40
E0
40
40
40
E0
ENDCHAR
STARTCHAR g
ENCODING 103
SWIDTH 480 0
DWIDTH 5 0
BBX 4 7 0 -2
BITMAP
70
A0
A0
40
60
90
E0
ENDCHAR
STARTCHAR h
ENCODING 104
SWIDTH 480 0
DWIDTH 5 0
BBX 5 7 0 0
BITMAP
80
80
E0
90
90
90
D8
ENDCHAR
STARTCHAR i
ENCODING 105
SWIDTH 288 0
DWIDTH 3 0
BBX 2 7 0 0
BITMAP
40
00
C0
40
40
40
40
ENDCHAR
STARTCHAR j
ENCODING 106
SWIDTH 288 0
DWIDTH 3 0
BBX 2 9 0 -2
BITMAP
40
00
C0
40
40
40
40
40
80
ENDCHAR
STARTCHAR k
ENCODING 107
SWIDTH 480 0
DWIDTH 5 0
BBX 5 7 0 0
BITMAP
80
80
90
A0
E0
90
98
ENDCHAR
STARTCHAR l
ENCODING 108
SWIDTH 384 0
DWIDTH 4 0
BBX 3 7 0 0
BITMAP
C0
40
40
40
40
40
E0
ENDCHAR
STARTCHAR m
ENCODING 109
SWIDTH 768 0
DWIDTH 8 0
BBX 8 5 0 0
BITMAP
EC
92
92
92
DB
ENDCHAR
STARTCHAR n
ENCODING 110
SWIDTH 480 0
DWIDTH 5 0
BBX 5 5 0 0
BITMAP
E0
90
90
90
D8
ENDCHAR
STARTCHAR o
ENCODING 111
SWIDTH 480 0
DWIDTH 5 0
BBX 4 5 0 0
BITMAP
60
90
90
90
60
ENDCHAR
STARTCHAR p
ENCODING 112
SWIDTH 480 0
DWIDTH 5 0
BBX 4 7 0 -2
BITMAP
E0
90
90
90
E0
80
C0
ENDCHAR
STARTCHAR q
ENCODING 113
SWIDTH 480 0
DWIDTH 5 0
BBX 5 7 0 -2
BITMAP
70
90
90
90
70
10
38
ENDCHAR
STARTCHAR r
ENCODING 114
SWIDTH 384 0
DWIDTH 4 0
BBX 3 5 0 0
BITMAP
A0
60
40
40
E0
ENDCHAR
STARTCHAR s
ENCODING 115
SWIDTH 384 0
DWIDTH 4 0
BBX 3 5 0 0
BITMAP
E0
80
60
20
E0
ENDCHAR
STARTCHAR t
ENCODING 116
SWIDTH 384 0
DWIDTH 4 0
BBX 4 6 0 0
BITMAP
40
E0
40
40
40
30
ENDCHAR
STARTCHAR u
ENCODING 117
SWIDTH 480 0
DWIDTH 5 0
BBX 5 5 0 0
BITMAP
90
90
90
90
68
ENDCHAR
STARTCHAR v
ENCODING 118
SWIDTH 480 0
DWIDTH 5 0
BBX 5 5 0 0
BITMAP
D8
90
50
60
20
ENDCHAR
STARTCHAR w
ENCODING 119
SWIDTH 768 0
DWIDTH 8 0
BBX 8 5 0 0
BITMAP
DB
92
54
6C
28
ENDCHAR
STARTCHAR x
ENCODING 120
SWIDTH 576 0
DWIDTH 6 0
BBX 5 5 0 0
BITMAP
D8
50
20
50
D8
ENDCHAR
STARTCHAR y
ENCODING 121
SWIDTH 480 0
DWIDTH 5 0
BBX 6 7 -1 -2
BITMAP
DC
48
50
30
20
40
40
ENDCHAR
STARTCHAR z
ENCODING 122
SWIDTH 480 0
DWIDTH 5 0
BBX 4 5 0 0
BITMAP
F0
20
40
90
F0
ENDCHAR
STARTCHAR braceleft
ENCODING 123
SWIDTH 384 0
DWIDTH 4 0
BBX 3 9 0 -2
BITMAP
20
40
40
40
80
40
40
40
20
ENDCHAR
STARTCHAR bar
ENCODING 124
SWIDTH 192 0
DWIDTH 2 0
BBX 1 9 0 -2
BITMAP
80
80
80
80
80
80
80
80
80
ENDCHAR
STARTCHAR braceright
ENCODING 125
SWIDTH 384 0
DWIDTH 4 0
BBX 3 9 0 -2
BITMAP
80
40
40
40
20
40
40
40
80
ENDCHAR
STARTCHAR asciitilde
ENCODING 126
SWIDTH 672 0
DWIDTH 7 0
BBX 6 2 0 2
BITMAP
64
98
ENDCHAR
STARTCHAR afii10051
ENCODING 128
SWIDTH 768 0
DWIDTH 8 0
BBX 7 9 0 -2
BITMAP
F8
A8
20
3C
22
22
72
02
0C
ENDCHAR
STARTCHAR afii10052
ENCODING 129
SWIDTH 576 0
DWIDTH 6 0
BBX 5 10 0 0
BITMAP
10
20
00
F8
48
40
40
40
40
E0
ENDCHAR
STARTCHAR quotesinglbase
ENCODING 130
SWIDTH 288 0
DWIDTH 3 0
BBX 2 2 0 -1
BITMAP
C0
40
ENDCHAR
STARTCHAR afii10100
ENCODING 131
SWIDTH 384 0
DWIDTH 4 0
BBX 4 8 0 0
BITMAP
20
40
00
F0
50
40
40
E0
ENDCHAR
STARTCHAR quotedblbase
ENCODING 132
SWIDTH 576 0
DWIDTH 6 0
BBX 5 2 0 -1
BITMAP
D8
48
ENDCHAR
STARTCHAR ellipsis
ENCODING 133
SWIDTH 960 0
DWIDTH 10 0
BBX 7 1 1 0
BITMAP
92
ENDCHAR
STARTCHAR dagger
ENCODING 134
SWIDTH 480 0
DWIDTH 5 0
BBX 3 9 1 -1
BITMAP
40
40
E0
40
40
40
40
40
40
ENDCHAR
STARTCHAR daggerdbl
ENCODING 135
SWIDTH 480 0
DWIDTH 5 0
BBX 3 9 1 -1
BITMAP
40
40
E0
40
40
40
E0
40
40
ENDCHAR
STARTCHAR Euro
ENCODING 136
SWIDTH 768 0
DWIDTH 8 0
BBX 7 7 0 0
BITMAP
3E
62
F8
40
F0
62
3C
ENDCHAR
STARTCHAR perthousand
ENCODING 137
SWIDTH 960 0
DWIDTH 10 0
BBX 10 7 0 0
BITMAP
7E00
A400
A800
5480
2B40
2B40
4480
ENDCHAR
STARTCHAR afii10058
ENCODING 138
SWIDTH 960 0
DWIDTH 10 0
BBX 9 7 0 0
BITMAP
7E00
2400
2400
2700
2480
A480
CF00
ENDCHAR
STARTCHAR guilsinglleft
ENCODING 139
SWIDTH 288 0
DWIDTH 3 0
BBX 2 4 0 1
BITMAP
40
80
80
40
ENDCHAR
STARTCHAR afii10059
ENCODING 140
SWIDTH 960 0
DWIDTH 10 0
BBX 9 7 0 0
BITMAP
EE00
4400
4400
7F00
4480
4480
EF00
ENDCHAR
STARTCHAR afii10061
ENCODING 141
SWIDTH 672 0
DWIDTH 7 0
BBX 6 10 0 0
BITMAP
08
10
00
EC
48
50
60
50
48
EC
ENDCHAR
STARTCHAR afii10060
ENCODING 142
SWIDTH 864 0
DWIDTH 9 0
BBX 8 7 0 0
BITMAP
F8
A8
20
3C
22
22
77
ENDCHAR
STARTCHAR afii10145
ENCODING 143
SWIDTH 768 0
DWIDTH 8 0
BBX 7 8 0 -1
BITMAP
EE
44
44
44
44
44
FE
10
ENDCHAR
STARTCHAR afii10099
ENCODING 144
SWIDTH 480 0
DWIDTH 5 0
BBX 5 9 -1 -2
BITMAP
40
E0
40
70
48
48
68
08
10
ENDCHAR
STARTCHAR quoteleft
ENCODING 145
SWIDTH 288 0
DWIDTH 3 0
BBX 2 2 0 5
BITMAP
80
C0
ENDCHAR
STARTCHAR quoteright
ENCODING 146
SWIDTH 288 0
DWIDTH 3 0
BBX 2 2 0 5
BITMAP
C0
40
ENDCHAR
STARTCHAR quotedblleft
ENCODING 147
SWIDTH 576 0
DWIDTH 6 0
BBX 5 2 0 5
BITMAP
90
D8
ENDCHAR
STARTCHAR quotedblright
ENCODING 148
SWIDTH 576 0
DWIDTH 6 0
BBX 5 2 0 5
BITMAP
D8
48
ENDCHAR
STARTCHAR bullet
ENCODING 149
SWIDTH 384 0
DWIDTH 4 0
BBX 4 3 0 2
BITMAP
60
F0
60
ENDCHAR
STARTCHAR endash
ENCODING 150
SWIDTH 480 0
DWIDTH 5 0
BBX 5 1 0 2
BITMAP
F8
ENDCHAR
STARTCHAR emdash
ENCODING 151
SWIDTH 960 0
DWIDTH 10 0
BBX 9 1 0 2
BITMAP
FF80
ENDCHAR
STARTCHAR trademark
ENCODING 153
SWIDTH 1056 0
DWIDTH 11 0
BBX 9 4 0 3
BITMAP
E880
4D80
4A80
4A80
ENDCHAR
STARTCHAR afii10106
ENCODING 154
SWIDTH 768 0
DWIDTH 8 0
BBX 7 5 0 0
BITMAP
38
50
5C
52
DC
ENDCHAR
STARTCHAR guilsinglright
ENCODING 155
SWIDTH 288 0
DWIDTH 3 0
BBX 2 4 0 1
BITMAP
80
40
40
80
ENDCHAR
STARTCHAR afii10107
ENCODING 156
SWIDTH 768 0
DWIDTH 8 0
BBX 7 5 0 0
BITMAP
D8
50
7C
52
DC
ENDCHAR
STARTCHAR afii10109
ENCODING 157
SWIDTH 480 0
DWIDTH 5 0
BBX 5 8 0 0
BITMAP
10
20
00
90
A0
E0
90
98
ENDCHAR
STARTCHAR afii10108
ENCODING 158
SWIDTH 480 0
DWIDTH 5 0
BBX 6 7 -1 0
BITMAP
40
E0
40
70
48
48
6C
ENDCHAR
STARTCHAR afii10193
ENCODING 159
SWIDTH 480 0
DWIDTH 5 0
BBX 5 6 0 -1
BITMAP
D8
90
90
90
F8
20
ENDCHAR
STARTCHAR space
ENCODING 160
SWIDTH 192 0
DWIDTH 2 0
BBX 0 0 0 0
BITMAP
ENDCHAR
STARTCHAR afii10062
ENCODING 161
SWIDTH 768 0
DWIDTH 8 0
BBX 7 9 0 0
BITMAP
38
00
EE
44
44
28
28
10
60
ENDCHAR
STARTCHAR afii10110
ENCODING 162
SWIDTH 480 0
DWIDTH 5 0
BBX 6 9 -1 -2
BITMAP
30
00
DC
48
50
30
20
40
40
ENDCHAR
STARTCHAR afii10057
ENCODING 163
SWIDTH 384 0
DWIDTH 4 0
BBX 4 7 0 0
BITMAP
70
20
20
20
20
A0
C0
ENDCHAR
STARTCHAR currency
ENCODING 164
SWIDTH 480 0
DWIDTH 5 0
BBX 5 6 0 1
BITMAP
88
70
50
50
70
88
ENDCHAR
STARTCHAR afii10050
ENCODING 165
SWIDTH 576 0
DWIDTH 6 0
BBX 5 8 0 0
BITMAP
08
F8
40
40
40
40
40
E0
ENDCHAR
STARTCHAR brokenbar
ENCODING 166
SWIDTH 192 0
DWIDTH 2 0
BBX 1 7 0 0
BITMAP
80
80
80
00
80
80
80
ENDCHAR
STARTCHAR section
ENCODING 167
SWIDTH 480 0
DWIDTH 5 0
BBX 4 9 0 -1
BITMAP
70
90
40
A0
90
50
20
90
E0
ENDCHAR
STARTCHAR afii10023
ENCODING 168
SWIDTH 611 0
DWIDTH 6 0
BBX 5 9 0 0
BITMAP
50
00
F8
48
40
70
40
48
F8
ENDCHAR
STARTCHAR copyright
ENCODING 169
SWIDTH 864 0
DWIDTH 9 0
BBX 7 7 1 0
BITMAP
38
44
9A
A2
9A
44
38
ENDCHAR
STARTCHAR afii10053
ENCODING 170
SWIDTH 672 0
DWIDTH 7 0
BBX 6 7 0 0
BITMAP
7C
C4
80
F0
80
C4
78
ENDCHAR
STARTCHAR guillemotleft
ENCODING 171
SWIDTH 480 0
DWIDTH 5 0
BBX 4 4 0 1
BITMAP
50
A0
A0
50
ENDCHAR
STARTCHAR logicalnot
ENCODING 172
SWIDTH 672 0
DWIDTH 7 0
BBX 5 3 1 1
BITMAP
F8
08
08
ENDCHAR
STARTCHAR hyphen
ENCODING 173
SWIDTH 384 0
DWIDTH 4 0
BBX 3 1 0 2
BITMAP
E0
ENDCHAR
STARTCHAR registered
ENCODING 174
SWIDTH 864 0
DWIDTH 9 0
BBX 7 7 1 0
BITMAP
38
44
BA
B2
AA
44
38
ENDCHAR
STARTCHAR afii10056
ENCODING 175
SWIDTH 333 0
DWIDTH 4 0
BBX 3 9 0 0
BITMAP
A0
00
E0
40
40
40
40
40
E0
ENDCHAR
STARTCHAR degree
ENCODING 176
SWIDTH 384 0
DWIDTH 4 0
BBX 4 4 0 3
BITMAP
60
90
90
60
ENDCHAR
STARTCHAR plusminus
ENCODING 177
SWIDTH 576 0
DWIDTH 6 0
BBX 5 7 0 0
BITMAP
20
20
F8
20
20
00
F8
ENDCHAR
STARTCHAR afii10055
ENCODING 178
SWIDTH 384 0
DWIDTH 4 0
BBX 3 7 0 0
BITMAP
E0
40
40
40
40
40
E0
ENDCHAR
STARTCHAR afii10103
ENCODING 179
SWIDTH 288 0
DWIDTH 3 0
BBX 2 7 0 0
BITMAP
40
00
C0
40
40
40
40
ENDCHAR
STARTCHAR afii10098
ENCODING 180
SWIDTH 384 0
DWIDTH 4 0
BBX 4 6 0 0
BITMAP
10
F0
40
40
40
E0
ENDCHAR
STARTCHAR mu
ENCODING 181
SWIDTH 480 0
DWIDTH 5 0
BBX 5 7 0 -2
BITMAP
90
90
90
90
E8
80
80
ENDCHAR
STARTCHAR paragraph
ENCODING 182
SWIDTH 576 0
DWIDTH 6 0
BBX 6 9 0 -2
BITMAP
7C
E8
E8
E8
68
28
28
28
28
ENDCHAR
STARTCHAR periodcentered
ENCODING 183
SWIDTH 192 0
DWIDTH 2 0
BBX 1 1 0 2
BITMAP
80
ENDCHAR
STARTCHAR afii10071
ENCODING 184
SWIDTH 444 0
DWIDTH 4 0
BBX 3 7 0 0
BITMAP
A0
00
60
A0
C0
80
60
ENDCHAR
STARTCHAR afii61352
ENCODING 185
SWIDTH 1056 0
DWIDTH 11 0
BBX 10 7 0 0
BITMAP
E600
6400
5480
5540
4C80
4C00
C5C0
ENDCHAR
STARTCHAR afii10101
ENCODING 186
SWIDTH 384 0
DWIDTH 4 0
BBX 3 5 0 0
BITMAP
60
80
C0
80
60
ENDCHAR
STARTCHAR guillemotright
ENCODING 187
SWIDTH 480 0
DWIDTH 5 0
BBX 4 4 0 1
BITMAP
A0
50
50
A0
ENDCHAR
STARTCHAR afii10105
ENCODING 188
SWIDTH 288 0
DWIDTH 3 0
BBX 2 9 0 -2
BITMAP
40
00
C0
40
40
40
40
40
80
ENDCHAR
STARTCHAR afii10054
ENCODING 189
SWIDTH 480 0
DWIDTH 5 0
BBX 4 7 0 0
BITMAP
70
90
C0
60
10
90
E0
ENDCHAR
STARTCHAR afii10102
ENCODING 190
SWIDTH 384 0
DWIDTH 4 0
BBX 3 5 0 0
BITMAP
E0
80
60
20
E0
ENDCHAR
STARTCHAR afii10104
ENCODING 191
SWIDTH 278 0
DWIDTH 4 0
BBX 3 7 0 0
BITMAP
A0
00
C0
40
40
40
E0
ENDCHAR
STARTCHAR afii10017
ENCODING 192
SWIDTH 768 0
DWIDTH 8 0
BBX 7 7 0 0
BITMAP
10
38
28
28
7C
44
EE
ENDCHAR
STARTCHAR afii10018
ENCODING 193
SWIDTH 576 0
DWIDTH 6 0
BBX 5 7 0 0
BITMAP
F8
48
40
70
48
48
F0
ENDCHAR
STARTCHAR afii10019
ENCODING 194
SWIDTH 576 0
DWIDTH 6 0
BBX 5 7 0 0
BITMAP
F0
48
48
70
48
48
F0
ENDCHAR
STARTCHAR afii10020
ENCODING 195
SWIDTH 576 0
DWIDTH 6 0
BBX 5 7 0 0
BITMAP
F8
48
40
40
40
40
E0
ENDCHAR
STARTCHAR afii10021
ENCODING 196
SWIDTH 768 0
DWIDTH 8 0
BBX 7 8 0 -1
BITMAP
7E
24
24
24
24
44
FE
82
ENDCHAR
STARTCHAR afii10022
ENCODING 197
SWIDTH 576 0
DWIDTH 6 0
BBX 5 7 0 0
BITMAP
F8
48
40
70
40
48
F8
ENDCHAR
STARTCHAR afii10024
ENCODING 198
SWIDTH 960 0
DWIDTH 10 0
BBX 9 7 0 0
BITMAP
DD80
4900
2A00
1C00
2A00
4900
DD80
ENDCHAR
STARTCHAR afii10025
ENCODING 199
SWIDTH 480 0
DWIDTH 5 0
BBX 4 7 0 0
BITMAP
E0
90
10
60
10
90
60
ENDCHAR
STARTCHAR afii10026
ENCODING 200
SWIDTH 768 0
DWIDTH 8 0
BBX 7 7 0 0
BITMAP
EE
44
4C
54
64
44
EE
ENDCHAR
STARTCHAR afii10027
ENCODING 201
SWIDTH 768 0
DWIDTH 8 0
BBX 7 9 0 0
BITMAP
38
00
EE
44
4C
54
64
44
EE
ENDCHAR
STARTCHAR afii10028
ENCODING 202
SWIDTH 672 0
DWIDTH 7 0
BBX 6 7 0 0
BITMAP
EC
48
50
60
50
48
EC
ENDCHAR
STARTCHAR afii10029
ENCODING 203
SWIDTH 768 0
DWIDTH 8 0
BBX 7 7 0 0
BITMAP
7E
24
24
24
24
A4
CE
ENDCHAR
STARTCHAR afii10030
ENCODING 204
SWIDTH 960 0
DWIDTH 10 0
BBX 9 7 0 0
BITMAP
E380
6300
6300
5500
5500
4900
EB80
ENDCHAR
STARTCHAR afii10031
ENCODING 205
SWIDTH 768 0
DWIDTH 8 0
BBX 7 7 0 0
BITMAP
EE
44
44
7C
44
44
EE
ENDCHAR
STARTCHAR afii10032
ENCODING 206
SWIDTH 672 0
DWIDTH 7 0
BBX 6 7 0 0
BITMAP
78
CC
84
84
84
CC
78
ENDCHAR
STARTCHAR afii10033
ENCODING 207
SWIDTH 768 0
DWIDTH 8 0
BBX 7 7 0 0
BITMAP
FE
44
44
44
44
44
EE
ENDCHAR
STARTCHAR afii10034
ENCODING 208
SWIDTH 576 0
DWIDTH 6 0
BBX 5 7 0 0
BITMAP
F0
48
48
70
40
40
E0
ENDCHAR
STARTCHAR afii10035
ENCODING 209
SWIDTH 672 0
DWIDTH 7 0
BBX 6 7 0 0
BITMAP
7C
C4
80
80
80
C4
78
ENDCHAR
STARTCHAR afii10036
ENCODING 210
SWIDTH 576 0
DWIDTH 6 0
BBX 5 7 0 0
BITMAP
F8
A8
20
20
20
20
70
ENDCHAR
STARTCHAR afii10037
ENCODING 211
SWIDTH 768 0
DWIDTH 8 0
BBX 7 7 0 0
BITMAP
EE
44
44
28
28
10
60
ENDCHAR
STARTCHAR afii10038
ENCODING 212
SWIDTH 768 0
DWIDTH 8 0
BBX 7 7 0 0
BITMAP
10
7C
92
92
92
7C
10
ENDCHAR
STARTCHAR afii10039
ENCODING 213
SWIDTH 768 0
DWIDTH 8 0
BBX 7 7 0 0
BITMAP
EE
44
28
10
28
44
EE
ENDCHAR
STARTCHAR afii10040
ENCODING 214
SWIDTH 768 0
DWIDTH 8 0
BBX 7 8 0 -1
BITMAP
EE
44
44
44
44
44
FE
02
ENDCHAR
STARTCHAR afii10041
ENCODING 215
SWIDTH 768 0
DWIDTH 8 0
BBX 7 7 0 0
BITMAP
EE
44
44
3C
04
04
0E
ENDCHAR
STARTCHAR afii10042
ENCODING 216
SWIDTH 960 0
DWIDTH 10 0
BBX 9 7 0 0
BITMAP
EB80
4900
4900
4900
4900
4900
FF80
ENDCHAR
STARTCHAR afii10043
ENCODING 217
SWIDTH 960 0
DWIDTH 10 0
BBX 9 8 0 -1
BITMAP
EB80
4900
4900
4900
4900
4900
FF80
0080
ENDCHAR
STARTCHAR afii10044
ENCODING 218
SWIDTH 672 0
DWIDTH 7 0
BBX 6 7 0 0
BITMAP
F0
A0
20
38
24
24
78
ENDCHAR
STARTCHAR afii10045
ENCODING 219
SWIDTH 768 0
DWIDTH 8 0
BBX 8 7 0 0
BITMAP
E7
42
42
72
4A
4A
F7
ENDCHAR
STARTCHAR afii10046
ENCODING 220
SWIDTH 576 0
DWIDTH 6 0
BBX 5 7 0 0
BITMAP
E0
40
40
70
48
48
F0
ENDCHAR
STARTCHAR afii10047
ENCODING 221
SWIDTH 672 0
DWIDTH 7 0
BBX 6 7 0 0
BITMAP
F8
8C
04
3C
04
8C
78
ENDCHAR
STARTCHAR afii10048
ENCODING 222
SWIDTH 864 0
DWIDTH 9 0
BBX 8 7 0 0
BITMAP
DE
B3
A1
E1
A1
B3
DE
ENDCHAR
STARTCHAR afii10049
ENCODING 223
SWIDTH 576 0
DWIDTH 6 0
BBX 6 7 0 0
BITMAP
3C
48
48
38
28
48
DC
ENDCHAR
STARTCHAR afii10065
ENCODING 224
SWIDTH 384 0
DWIDTH 4 0
BBX 3 5 0 0
BITMAP
C0
20
60
A0
E0
ENDCHAR
STARTCHAR afii10066
ENCODING 225
SWIDTH 480 0
DWIDTH 5 0
BBX 4 7 0 0
BITMAP
70
80
E0
90
90
90
60
ENDCHAR
STARTCHAR afii10067
ENCODING 226
SWIDTH 480 0
DWIDTH 5 0
BBX 4 5 0 0
BITMAP
E0
90
E0
90
E0
ENDCHAR
STARTCHAR afii10068
ENCODING 227
SWIDTH 384 0
DWIDTH 4 0
BBX 4 5 0 0
BITMAP
F0
50
40
40
E0
ENDCHAR
STARTCHAR afii10069
ENCODING 228
SWIDTH 480 0
DWIDTH 5 0
BBX 5 6 0 -1
BITMAP
78
50
50
50
F8
88
ENDCHAR
STARTCHAR afii10070
ENCODING 229
SWIDTH 384 0
DWIDTH 4 0
BBX 3 5 0 0
BITMAP
60
A0
C0
80
60
ENDCHAR
STARTCHAR afii10072
ENCODING 230
SWIDTH 672 0
DWIDTH 7 0
BBX 7 5 0 0
BITMAP
D6
54
38
54
D6
ENDCHAR
STARTCHAR afii10073
ENCODING 231
SWIDTH 384 0
DWIDTH 4 0
BBX 3 5 0 0
BITMAP
C0
20
40
20
C0
ENDCHAR
STARTCHAR afii10074
ENCODING 232
SWIDTH 480 0
DWIDTH 5 0
BBX 4 5 0 0
BITMAP
90
90
B0
D0
90
ENDCHAR
STARTCHAR afii10075
ENCODING 233
SWIDTH 480 0
DWIDTH 5 0
BBX 4 7 0 0
BITMAP
60
00
90
90
B0
D0
90
ENDCHAR
STARTCHAR afii10076
ENCODING 234
SWIDTH 480 0
DWIDTH 5 0
BBX 5 5 0 0
BITMAP
90
A0
E0
90
98
ENDCHAR
STARTCHAR afii10077
ENCODING 235
SWIDTH 480 0
DWIDTH 5 0
BBX 5 5 0 0
BITMAP
38
50
50
50
D8
ENDCHAR
STARTCHAR afii10078
ENCODING 236
SWIDTH 576 0
DWIDTH 6 0
BBX 5 5 0 0
BITMAP
88
D8
D8
A8
A8
ENDCHAR
STARTCHAR afii10079
ENCODING 237
SWIDTH 480 0
DWIDTH 5 0
BBX 5 5 0 0
BITMAP
D8
50
70
50
D8
ENDCHAR
STARTCHAR afii10080
ENCODING 238
SWIDTH 480 0
DWIDTH 5 0
BBX 4 5 0 0
BITMAP
60
90
90
90
60
ENDCHAR
STARTCHAR afii10081
ENCODING 239
SWIDTH 480 0
DWIDTH 5 0
BBX 5 5 0 0
BITMAP
F8
90
90
90
D8
ENDCHAR
STARTCHAR afii10082
ENCODING 240
SWIDTH 480 0
DWIDTH 5 0
BBX 4 7 0 -2
BITMAP
E0
90
90
90
E0
80
C0
ENDCHAR
STARTCHAR afii10083
ENCODING 241
SWIDTH 384 0
DWIDTH 4 0
BBX 3 5 0 0
BITMAP
60
80
80
80
60
ENDCHAR
STARTCHAR afii10084
ENCODING 242
SWIDTH 480 0
DWIDTH 5 0
BBX 5 5 0 0
BITMAP
F8
A8
20
20
70
ENDCHAR
STARTCHAR afii10085
ENCODING 243
SWIDTH 480 0
DWIDTH 5 0
BBX 6 7 -1 -2
BITMAP
DC
48
50
30
20
40
40
ENDCHAR
STARTCHAR afii10086
ENCODING 244
SWIDTH 576 0
DWIDTH 6 0
BBX 5 9 0 -2
BITMAP
60
20
70
A8
A8
A8
70
20
20
ENDCHAR
STARTCHAR afii10087
ENCODING 245
SWIDTH 576 0
DWIDTH 6 0
BBX 5 5 0 0
BITMAP
D8
50
20
50
D8
ENDCHAR
STARTCHAR afii10088
ENCODING 246
SWIDTH 480 0
DWIDTH 5 0
BBX 5 6 0 -1
BITMAP
D8
90
90
90
F8
08
ENDCHAR
STARTCHAR afii10089
ENCODING 247
SWIDTH 480 0
DWIDTH 5 0
BBX 5 5 0 0
BITMAP
B0
90
70
10
18
ENDCHAR
STARTCHAR afii10090
ENCODING 248
SWIDTH 768 0
DWIDTH 8 0
BBX 7 5 0 0
BITMAP
B6
92
92
92
FE
ENDCHAR
STARTCHAR afii10091
ENCODING 249
SWIDTH 768 0
DWIDTH 8 0
BBX 8 6 0 -1
BITMAP
B6
92
92
92
FF
01
ENDCHAR
STARTCHAR afii10092
ENCODING 250
SWIDTH 576 0
DWIDTH 6 0
BBX 5 5 0 0
BITMAP
C0
40
70
48
70
ENDCHAR
STARTCHAR afii10093
ENCODING 251
SWIDTH 576 0
DWIDTH 6 0
BBX 5 5 0 0
BITMAP
88
88
E8
98
E8
ENDCHAR
STARTCHAR afii10094
ENCODING 252
SWIDTH 480 0
DWIDTH 5 0
BBX 4 5 0 0
BITMAP
80
80
E0
90
E0
ENDCHAR
STARTCHAR afii10095
ENCODING 253
SWIDTH 384 0
DWIDTH 4 0
BBX 3 5 0 0
BITMAP
C0
20
60
20
C0
ENDCHAR
STARTCHAR afii10096
ENCODING 254
SWIDTH 672 0
DWIDTH 7 0
BBX 6 5 0 0
BITMAP
98
A4
E4
A4
98
ENDCHAR
STARTCHAR afii10097
ENCODING 255
SWIDTH 480 0
DWIDTH 5 0
BBX 4 5 0 0
BITMAP
70
90
70
50
90
ENDCHAR
STARTCHAR Lslash
ENCODING -1
SWIDTH 576 0
DWIDTH 6 0
BBX 5 7 0 0
BITMAP
E0
40
60
C0
40
48
F8
ENDCHAR
STARTCHAR OE
ENCODING -1
SWIDTH 864 0
DWIDTH 9 0
BBX 8 7 0 0
BITMAP
7F
C9
88
8E
88
C9
7F
ENDCHAR
STARTCHAR Scaron
ENCODING -1
SWIDTH 480 0
DWIDTH 5 0
BBX 4 10 0 0
BITMAP
50
20
00
70
90
C0
60
10
90
E0
ENDCHAR
STARTCHAR Ydieresis
ENCODING -1
SWIDTH 768 0
DWIDTH 8 0
BBX 7 9 0 0
BITMAP
28
00
EE
44
28
28
10
10
38
ENDCHAR
STARTCHAR Zcaron
ENCODING -1
SWIDTH 576 0
DWIDTH 6 0
BBX 5 10 0 0
BITMAP
50
20
00
F8
88
10
20
40
88
F8
ENDCHAR
STARTCHAR breve
ENCODING -1
SWIDTH 384 0
DWIDTH 4 0
BBX 3 2 0 6
BITMAP
A0
E0
ENDCHAR
STARTCHAR caron
ENCODING -1
SWIDTH 384 0
DWIDTH 4 0
BBX 3 2 0 6
BITMAP
A0
40
ENDCHAR
STARTCHAR circumflex
ENCODING -1
SWIDTH 384 0
DWIDTH 4 0
BBX 3 2 0 6
BITMAP
40
A0
ENDCHAR
STARTCHAR dotaccent
ENCODING -1
SWIDTH 288 0
DWIDTH 3 0
BBX 1 1 1 6
BITMAP
80
ENDCHAR
STARTCHAR dotlessi
ENCODING -1
SWIDTH 288 0
DWIDTH 3 0
BBX 2 5 0 0
BITMAP
C0
40
40
40
40
ENDCHAR
STARTCHAR fi
ENCODING -1
SWIDTH 576 0
DWIDTH 6 0
BBX 6 7 0 0
BITMAP
38
40
F8
48
48
48
FC
ENDCHAR
STARTCHAR fl
ENCODING -1
SWIDTH 576 0
DWIDTH 6 0
BBX 6 7 0 0
BITMAP
38
48
F8
48
48
48
FC
ENDCHAR
STARTCHAR florin
ENCODING -1
SWIDTH 480 0
DWIDTH 5 0
BBX 5 9 -1 -2
BITMAP
18
20
70
20
20
20
20
20
C0
ENDCHAR
STARTCHAR fraction
ENCODING -1
SWIDTH 384 0
DWIDTH 4 0
BBX 5 7 -1 0
BITMAP
08
10
10
20
40
40
80
ENDCHAR
STARTCHAR hungarumlaut
ENCODING -1
SWIDTH 480 0
DWIDTH 5 0
BBX 5 2 0 6
BITMAP
48
90
ENDCHAR
STARTCHAR lslash
ENCODING -1
SWIDTH 384 0
DWIDTH 4 0
BBX 3 7 0 0
BITMAP
C0
40
60
C0
40
40
E0
ENDCHAR
STARTCHAR oe
ENCODING -1
SWIDTH 672 0
DWIDTH 7 0
BBX 6 5 0 0
BITMAP
6C
94
98
90
6C
ENDCHAR
STARTCHAR ogonek
ENCODING -1
SWIDTH 384 0
DWIDTH 4 0
BBX 3 3 1 -3
BITMAP
80
A0
60
ENDCHAR
STARTCHAR ring
ENCODING -1
SWIDTH 384 0
DWIDTH 4 0
BBX 3 3 0 5
BITMAP
40
A0
40
ENDCHAR
STARTCHAR scaron
ENCODING -1
SWIDTH 384 0
DWIDTH 4 0
BBX 3 8 0 0
BITMAP
A0
40
00
60
80
40
20
E0
ENDCHAR
STARTCHAR tilde
ENCODING -1
SWIDTH 480 0
DWIDTH 5 0
BBX 4 2 0 5
BITMAP
50
A0
ENDCHAR
STARTCHAR zcaron
ENCODING -1
SWIDTH 480 0
DWIDTH 5 0
BBX 4 8 0 0
BITMAP
A0
40
00
F0
20
40
90
F0
ENDCHAR
ENDFONT
